Comme-Heavy.ufo
<glyph name="quotedbl" format="1">
  <advance width="917"/>
  <unicode hex="0022"/>
  <outline>
    <contour>
      <point x="620" y="884" type="line"/>
      <point x="798" y="884" type="line"/>
      <point x="849" y="1566" type="line"/>
      <point x="515" y="1566" type="line"/>
    </contour>
    <contour>
      <point x="188" y="884" type="line"/>
      <point x="365" y="884" type="line"/>
      <point x="416" y="1566" type="line"/>
      <point x="82" y="1566" type="line"/>
    </contour>
  </outline>
</glyph>
<glyph name="asterisk" format="1">
  <advance width="1077"/>
  <unicode hex="002A"/>
  <outline>
    <contour>
      <point x="377" y="443" type="line"/>
      <point x="541" y="775" type="line"/>
      <point x="710" y="440" type="line"/>
      <point x="962" y="585" type="line"/>
      <point x="964" y="583" type="line" smooth="yes"/>
      <point x="969" y="583"/>
      <point x="763" y="852"/>
      <point x="720" y="908" type="curve"/>
      <point x="1070" y="990" type="line"/>
      <point x="988" y="1271" type="line"/>
      <point x="648" y="1122" type="line"/>
      <point x="679" y="1539" type="line"/>
      <point x="401" y="1539" type="line"/>
      <point x="435" y="1122" type="line"/>
      <point x="97" y="1271" type="line"/>
      <point x="17" y="990" type="line"/>
      <point x="362" y="908" type="line"/>
      <point x="118" y="585" type="line"/>
    </contour>
  </outline>
</glyph>
<glyph name="comma" format="1">
  <advance width="695"/>
  <unicode hex="002C"/>
  <outline>
    <contour>
      <point x="182" y="-363" type="curve"/>
      <point x="423" y="-363" type="line"/>
      <point x="548" y="91" type="line"/>
      <point x="548" y="293" type="line"/>
      <point x="218" y="293" type="line"/>
      <point x="218" y="213"/>
      <point x="182" y="-363"/>
    </contour>
  </outline>
</glyph>
<glyph name="two" format="1">
  <advance width="1414"/>
  <unicode hex="0032"/>
  <outline>
    <contour>
      <point x="321" y="979" type="line"/>
      <point x="413" y="1091"/>
      <point x="555" y="1173"/>
      <point x="692" y="1173" type="curve" smooth="yes"/>
      <point x="791" y="1173"/>
      <point x="850" y="1100"/>
      <point x="850" y="1010" type="curve" smooth="yes"/>
      <point x="850" y="950"/>
      <point x="814" y="873"/>
      <point x="738" y="799" type="curve" smooth="yes"/>
      <point x="196" y="265" type="line"/>
      <point x="261" y="0" type="line"/>
      <point x="1221" y="0" type="line"/>
      <point x="1231" y="279" type="line"/>
      <point x="685" y="279" type="line"/>
      <point x="967" y="545" type="line" smooth="yes"/>
      <point x="1169" y="734"/>
      <point x="1239" y="884"/>
      <point x="1239" y="1000" type="curve" smooth="yes"/>
      <point x="1239" y="1206"/>
      <point x="1140" y="1476"/>
      <point x="695" y="1476" type="curve" smooth="yes"/>
      <point x="412" y="1476"/>
      <point x="214" y="1315"/>
      <point x="102" y="1177" type="curve"/>
      <point x="293" y="979" type="line"/>
    </contour>
  </outline>
</glyph>
<glyph name="three" format="1">
  <advance width="1219"/>
  <unicode hex="0033"/>
  <outline>
    <contour>
      <point x="680" y="444" type="curve" smooth="yes"/>
      <point x="680" y="353"/>
      <point x="637" y="282"/>
      <point x="501" y="282" type="curve" smooth="yes"/>
      <point x="348" y="282"/>
      <point x="256" y="361"/>
      <point x="209" y="398" type="curve"/>
      <point x="179" y="398" type="line"/>
      <point x="26" y="183" type="line"/>
      <point x="34" y="177"/>
      <point x="200" y="-20"/>
      <point x="539" y="-20" type="curve" smooth="yes"/>
      <point x="793" y="-20"/>
      <point x="1122" y="72"/>
      <point x="1122" y="427" type="curve" smooth="yes"/>
      <point x="1122" y="552"/>
      <point x="1049" y="718"/>
      <point x="787" y="750" type="curve"/>
      <point x="1047" y="795"/>
      <point x="1079" y="967"/>
      <point x="1079" y="1094" type="curve"/>
      <point x="1071" y="1377"/>
      <point x="827" y="1476"/>
      <point x="519" y="1476" type="curve" smooth="yes"/>
      <point x="245" y="1476"/>
      <point x="116" y="1342"/>
      <point x="45" y="1274" type="curve"/>
      <point x="221" y="1071" type="line"/>
      <point x="242" y="1064" type="line"/>
      <point x="323" y="1131"/>
      <point x="399" y="1163"/>
      <point x="487" y="1168" type="curve"/>
      <point x="601" y="1168"/>
      <point x="659" y="1130"/>
      <point x="667" y="1029" type="curve"/>
      <point x="667" y="873"/>
      <point x="591" y="837"/>
      <point x="368" y="837" type="curve"/>
      <point x="251" y="835" type="line"/>
      <point x="271" y="603" type="line"/>
      <point x="373" y="603" type="line" smooth="yes"/>
      <point x="554" y="603"/>
      <point x="680" y="588"/>
    </contour>
  </outline>
</glyph>
<glyph name="five" format="1">
  <advance width="1414"/>
  <unicode hex="0035"/>
  <outline>
    <contour>
      <point x="691" y="700" type="curve" smooth="yes"/>
      <point x="800" y="700"/>
      <point x="860" y="608"/>
      <point x="860" y="509" type="curve" smooth="yes"/>
      <point x="860" y="356"/>
      <point x="793" y="283"/>
      <point x="662" y="283" type="curve" smooth="yes"/>
      <point x="574" y="283"/>
      <point x="437" y="316"/>
      <point x="379" y="427" type="curve"/>
      <point x="357" y="427" type="line"/>
      <point x="165" y="212" type="line"/>
      <point x="281" y="43"/>
      <point x="440" y="-20"/>
      <point x="715" y="-20" type="curve" smooth="yes"/>
      <point x="1047" y="-20"/>
      <point x="1237" y="204"/>
      <point x="1237" y="489" type="curve" smooth="yes"/>
      <point x="1237" y="716"/>
      <point x="1102" y="964"/>
      <point x="765" y="964" type="curve" smooth="yes"/>
      <point x="668" y="964"/>
      <point x="605" y="942"/>
      <point x="553" y="900" type="curve"/>
      <point x="595" y="1187" type="line"/>
      <point x="1138" y="1187" type="line"/>
      <point x="1176" y="1456" type="line"/>
      <point x="286" y="1456" type="line"/>
      <point x="217" y="627" type="line"/>
      <point x="512" y="579" type="line"/>
      <point x="521" y="661"/>
      <point x="573" y="700"/>
    </contour>
  </outline>
</glyph>
<glyph name="eight" format="1">
  <advance width="1414"/>
  <unicode hex="0038"/>
  <outline>
    <contour>
      <point x="713" y="843" type="curve"/>
      <point x="627" y="889"/>
      <point x="568" y="985"/>
      <point x="568" y="1084" type="curve" smooth="yes"/>
      <point x="568" y="1173"/>
      <point x="625" y="1229"/>
      <point x="713" y="1229" type="curve" smooth="yes"/>
      <point x="799" y="1229"/>
      <point x="849" y="1174"/>
      <point x="849" y="1084" type="curve" smooth="yes"/>
      <point x="849" y="986"/>
      <point x="797" y="889"/>
    </contour>
    <contour>
      <point x="713" y="232" type="curve" smooth="yes"/>
      <point x="618" y="232"/>
      <point x="579" y="288"/>
      <point x="579" y="411" type="curve" smooth="yes"/>
      <point x="579" y="541"/>
      <point x="631" y="650"/>
      <point x="713" y="683" type="curve"/>
      <point x="793" y="650"/>
      <point x="841" y="542"/>
      <point x="841" y="412" type="curve" smooth="yes"/>
      <point x="841" y="289"/>
      <point x="808" y="232"/>
    </contour>
    <contour>
      <point x="713" y="-20" type="curve" smooth="yes"/>
      <point x="1084" y="-20"/>
      <point x="1281" y="138"/>
      <point x="1281" y="398" type="curve" smooth="yes"/>
      <point x="1281" y="595"/>
      <point x="1204" y="729"/>
      <point x="1068" y="783" type="curve"/>
      <point x="1190" y="832"/>
      <point x="1258" y="938"/>
      <point x="1258" y="1110" type="curve" smooth="yes"/>
      <point x="1258" y="1350"/>
      <point x="1023" y="1476"/>
      <point x="709" y="1476" type="curve" smooth="yes"/>
      <point x="397" y="1476"/>
      <point x="159" y="1350"/>
      <point x="159" y="1110" type="curve" smooth="yes"/>
      <point x="159" y="931"/>
      <point x="234" y="828"/>
      <point x="364" y="783" type="curve"/>
      <point x="222" y="732"/>
      <point x="133" y="587"/>
      <point x="133" y="398" type="curve" smooth="yes"/>
      <point x="133" y="138"/>
      <point x="338" y="-20"/>
    </contour>
  </outline>
</glyph>
<glyph name="question" format="1">
  <advance width="1119"/>
  <unicode hex="003F"/>
  <outline>
    <contour>
      <point x="364" y="-21" type="curve" smooth="yes"/>
      <point x="465" y="-21"/>
      <point x="532" y="45"/>
      <point x="532" y="152" type="curve" smooth="yes"/>
      <point x="532" y="261"/>
      <point x="465" y="325"/>
      <point x="364" y="325" type="curve" smooth="yes"/>
      <point x="258" y="325"/>
      <point x="190" y="261"/>
      <point x="190" y="152" type="curve" smooth="yes"/>
      <point x="190" y="44"/>
      <point x="258" y="-21"/>
    </contour>
    <contour>
      <point x="320" y="528" type="curve"/>
      <point x="395" y="493" type="line"/>
      <point x="620" y="781"/>
      <point x="979" y="817"/>
      <point x="979" y="1225" type="curve" smooth="yes"/>
      <point x="979" y="1437"/>
      <point x="770" y="1574"/>
      <point x="535" y="1574" type="curve" smooth="yes"/>
      <point x="418" y="1574"/>
      <point x="225" y="1534"/>
      <point x="114" y="1419" type="curve"/>
      <point x="213" y="1142" type="line"/>
      <point x="302" y="1189"/>
      <point x="397" y="1211"/>
      <point x="463" y="1211" type="curve" smooth="yes"/>
      <point x="572" y="1211"/>
      <point x="604" y="1147"/>
      <point x="604" y="1086" type="curve" smooth="yes"/>
      <point x="604" y="965"/>
      <point x="477" y="907"/>
    </contour>
  </outline>
</glyph>
<glyph name="A" format="1">
  <advance width="1574"/>
  <unicode hex="0041"/>
  <outline>
    <contour>
      <point x="798" y="1456" type="move" name="top"/>
    </contour>
    <contour>
      <point x="1326" y="0" type="move" name="ogonek"/>
    </contour>
    <contour>
      <point x="796" y="0" type="move" name="bot"/>
    </contour>
    <contour>
      <point x="511" y="1456" type="line"/>
      <point x="50" y="0" type="line"/>
      <point x="490" y="0" type="line"/>
      <point x="588" y="335" type="line"/>
      <point x="978" y="335" type="line"/>
      <point x="1084" y="0" type="line"/>
      <point x="1524" y="0" type="line"/>
      <point x="1072" y="1456" type="line"/>
    </contour>
    <contour>
      <point x="665" y="594" type="line"/>
      <point x="790" y="1112" type="line"/>
      <point x="908" y="594" type="line"/>
    </contour>
  </outline>
</glyph>
<glyph name="J" format="1">
  <advance width="823"/>
  <unicode hex="004A"/>
  <outline>
    <contour>
      <point x="453" y="1456" type="move" name="top"/>
    </contour>
    <contour>
      <point x="231" y="1456" type="line"/>
      <point x="231" y="355" type="line" smooth="yes"/>
      <point x="231" y="-61"/>
      <point x="221" y="-129"/>
      <point x="104" y="-188" type="curve" smooth="yes"/>
      <point x="-112" y="-296" type="line"/>
      <point x="42" y="-632" type="line"/>
      <point x="233" y="-546" type="line"/>
      <point x="630" y="-366"/>
      <point x="668" y="-214"/>
      <point x="668" y="95" type="curve" smooth="yes"/>
      <point x="668" y="168"/>
      <point x="666" y="250"/>
      <point x="666" y="343" type="curve" smooth="yes"/>
      <point x="666" y="1456" type="line"/>
    </contour>
  </outline>
</glyph>
<glyph name="Q" format="1">
  <advance width="1682"/>
  <unicode hex="0051"/>
  <outline>
    <component base="O"/>
    <contour>
      <point x="726" y="101" type="line"/>
      <point x="766" y="-28"/>
      <point x="1063" y="-394"/>
      <point x="1270" y="-565" type="curve"/>
      <point x="1543" y="-333" type="line"/>
      <point x="1341" y="-161"/>
      <point x="1231" y="-36"/>
      <point x="1114" y="146" type="curve"/>
    </contour>
  </outline>
</glyph>
<glyph name="S" format="1">
  <advance width="1230"/>
  <unicode hex="0053"/>
  <outline>
    <contour>
      <point x="618" y="1453" type="move" name="top"/>
    </contour>
    <contour>
      <point x="599" y="0" type="move" name="bot"/>
    </contour>
    <contour>
      <point x="1115" y="1182" type="line"/>
      <point x="1089" y="1301"/>
      <point x="922" y="1476"/>
      <point x="601" y="1476" type="curve" smooth="yes"/>
      <point x="321" y="1476"/>
      <point x="81" y="1345"/>
      <point x="81" y="1045" type="curve" smooth="yes"/>
      <point x="81" y="816"/>
      <point x="189" y="709"/>
      <point x="335" y="649" type="curve" smooth="yes"/>
      <point x="565" y="556" type="line" smooth="yes"/>
      <point x="704" y="499"/>
      <point x="716" y="454"/>
      <point x="716" y="388" type="curve" smooth="yes"/>
      <point x="716" y="314"/>
      <point x="669" y="282"/>
      <point x="597" y="282" type="curve" smooth="yes"/>
      <point x="505" y="282"/>
      <point x="409" y="378"/>
      <point x="368" y="443" type="curve"/>
      <point x="330" y="443" type="line"/>
      <point x="65" y="255" type="line"/>
      <point x="141" y="131"/>
      <point x="308" y="-20"/>
      <point x="617" y="-20" type="curve" smooth="yes"/>
      <point x="945" y="-20"/>
      <point x="1160" y="147"/>
      <point x="1160" y="424" type="curve" smooth="yes"/>
      <point x="1160" y="686"/>
      <point x="1035" y="782"/>
      <point x="835" y="862" type="curve" smooth="yes"/>
      <point x="674" y="927" type="line"/>
      <point x="554" y="973"/>
      <point x="507" y="1004"/>
      <point x="507" y="1078" type="curve" smooth="yes"/>
      <point x="507" y="1160"/>
      <point x="564" y="1198"/>
      <point x="624" y="1199" type="curve" smooth="yes"/>
      <point x="673" y="1199"/>
      <point x="764" y="1155"/>
      <point x="794" y="1049" type="curve"/>
      <point x="821" y="1049" type="line"/>
    </contour>
  </outline>
</glyph>
<glyph name="V" format="1">
  <advance width="1361"/>
  <unicode hex="0056"/>
  <outline>
    <contour>
      <point x="407" y="-7" type="line"/>
      <point x="911" y="-7" type="line"/>
      <point x="1375" y="1456" type="line"/>
      <point x="961" y="1456" type="line"/>
      <point x="689" y="470" type="line"/>
      <point x="673" y="392" type="line"/>
      <point x="589" y="751"/>
      <point x="493" y="1101"/>
      <point x="405" y="1456" type="curve"/>
      <point x="-14" y="1456" type="line"/>
    </contour>
  </outline>
</glyph>
<glyph name="c" format="1">
  <advance width="1144"/>
  <unicode hex="0063"/>
  <outline>
    <contour>
      <point x="622" y="1082" type="move" name="top"/>
    </contour>
    <contour>
      <point x="635" y="0" type="move" name="bot"/>
    </contour>
    <contour>
      <point x="672" y="828" type="curve" smooth="yes"/>
      <point x="742" y="828"/>
      <point x="819" y="780"/>
      <point x="836" y="696" type="curve"/>
      <point x="848" y="696" type="line"/>
      <point x="1098" y="830" type="line"/>
      <point x="1006" y="1035"/>
      <point x="855" y="1101"/>
      <point x="655" y="1101" type="curve" smooth="yes"/>
      <point x="295" y="1101"/>
      <point x="69" y="887"/>
      <point x="69" y="541" type="curve" smooth="yes"/>
      <point x="69" y="195"/>
      <point x="295" y="-20"/>
      <point x="655" y="-20" type="curve" smooth="yes"/>
      <point x="855" y="-20"/>
      <point x="1006" y="47"/>
      <point x="1098" y="251" type="curve"/>
      <point x="848" y="386" type="line"/>
      <point x="836" y="386" type="line"/>
      <point x="819" y="303"/>
      <point x="742" y="253"/>
      <point x="673" y="253" type="curve" smooth="yes"/>
      <point x="587" y="253"/>
      <point x="479" y="328"/>
      <point x="479" y="541" type="curve" smooth="yes"/>
      <point x="479" y="751"/>
      <point x="587" y="828"/>
    </contour>
  </outline>
</glyph>
<glyph name="f" format="1">
  <advance width="865"/>
  <unicode hex="0066"/>
  <outline>
    <contour>
      <point x="486" y="1456" type="move" name="top"/>
    </contour>
    <contour>
      <point x="575" y="1522" type="curve" smooth="yes"/>
      <point x="358" y="1522"/>
      <point x="158" y="1437"/>
      <point x="158" y="1157" type="curve" smooth="yes"/>
      <point x="158" y="1076" type="line"/>
      <point x="31" y="1052" type="line"/>
      <point x="26" y="851" type="line"/>
      <point x="158" y="851" type="line"/>
      <point x="158" y="0" type="line"/>
      <point x="572" y="0" type="line"/>
      <point x="572" y="851" type="line"/>
      <point x="833" y="851" type="line"/>
      <point x="833" y="1082" type="line"/>
      <point x="572" y="1082" type="line"/>
      <point x="572" y="1157" type="line" smooth="yes"/>
      <point x="572" y="1229"/>
      <point x="635" y="1261"/>
      <point x="728" y="1261" type="curve" smooth="yes"/>
      <point x="763" y="1261"/>
      <point x="790" y="1259"/>
      <point x="873" y="1248" type="curve"/>
      <point x="882" y="1488" type="line"/>
      <point x="845" y="1498"/>
      <point x="752" y="1522"/>
    </contour>
  </outline>
</glyph>
<glyph name="x" format="1">
  <advance width="1110"/>
  <unicode hex="0078"/>
  <outline>
    <contour>
      <point x="777" y="543" type="line"/>
      <point x="1110" y="1082" type="line"/>
      <point x="734" y="1082" type="line"/>
      <point x="580" y="844" type="line"/>
      <point x="424" y="1082" type="line"/>
      <point x="-4" y="1082" type="line"/>
      <point x="347" y="542" type="line"/>
      <point x="-21" y="-7" type="line"/>
      <point x="363" y="-7" type="line"/>
      <point x="542" y="243" type="line"/>
      <point x="704" y="-7" type="line"/>
      <point x="1138" y="-7" type="line"/>
    </contour>
  </outline>
</glyph>
<glyph name="asciitilde" format="1">
  <advance width="1192"/>
  <unicode hex="007E"/>
  <outline>
    <contour>
      <point x="194" y="464" type="line"/>
      <point x="230" y="532"/>
      <point x="285" y="597"/>
      <point x="367" y="597" type="curve" smooth="yes"/>
      <point x="437" y="597"/>
      <point x="485" y="576"/>
      <point x="543" y="547" type="curve" smooth="yes"/>
      <point x="638" y="503"/>
      <point x="710" y="474"/>
      <point x="814" y="474" type="curve" smooth="yes"/>
      <point x="967" y="474"/>
      <point x="1109" y="577"/>
      <point x="1160" y="670" type="curve"/>
      <point x="1060" y="837" type="line"/>
      <point x="963" y="743"/>
      <point x="905" y="717"/>
      <point x="835" y="717" type="curve" smooth="yes"/>
      <point x="786" y="717"/>
      <point x="723" y="734"/>
      <point x="641" y="773" type="curve" smooth="yes"/>
      <point x="565" y="806"/>
      <point x="466" y="836"/>
      <point x="380" y="836" type="curve" smooth="yes"/>
      <point x="223" y="836"/>
      <point x="137" y="745"/>
      <point x="84" y="641" type="curve"/>
    </contour>
  </outline>
</glyph>
<glyph name="cent" format="1">
  <advance width="1144"/>
  <unicode hex="00A2"/>
  <outline>
    <component base="c"/>
    <contour>
      <point x="570" y="62" type="line"/>
      <point x="559" y="-294" type="line"/>
      <point x="701" y="-294" type="line"/>
      <point x="699" y="62" type="line"/>
    </contour>
    <contour>
      <point x="569" y="1355" type="line"/>
      <point x="572" y="1027" type="line"/>
      <point x="703" y="1027" type="line"/>
      <point x="727" y="1355" type="line"/>
    </contour>
  </outline>
</glyph>
<glyph name="sterling" format="1">
  <advance width="1243"/>
  <unicode hex="00A3"/>
  <outline>
    <contour>
      <point x="1066" y="1209" type="line"/>
      <point x="1193" y="1450" type="line"/>
      <point x="1169" y="1466"/>
      <point x="1004" y="1574"/>
      <point x="765" y="1574" type="curve" smooth="yes"/>
      <point x="415" y="1574"/>
      <point x="280" y="1367"/>
      <point x="280" y="988" type="curve" smooth="yes"/>
      <point x="280" y="889" type="line"/>
      <point x="89" y="889" type="line"/>
      <point x="89" y="661" type="line"/>
      <point x="280" y="661" type="line"/>
      <point x="280" y="281" type="line"/>
      <point x="101" y="257" type="line"/>
      <point x="111" y="0" type="line"/>
      <point x="1164" y="0" type="line"/>
      <point x="1167" y="283" type="line"/>
      <point x="692" y="283" type="line"/>
      <point x="692" y="661" type="line"/>
      <point x="979" y="661" type="line"/>
      <point x="979" y="889" type="line"/>
      <point x="692" y="889" type="line"/>
      <point x="692" y="1066" type="line" smooth="yes"/>
      <point x="692" y="1187"/>
      <point x="755" y="1251"/>
      <point x="858" y="1251" type="curve" smooth="yes"/>
      <point x="863" y="1251" type="line" smooth="yes"/>
      <point x="906" y="1251"/>
      <point x="971" y="1238"/>
      <point x="1043" y="1209" type="curve"/>
    </contour>
  </outline>
</glyph>
<glyph name="currency" format="1">
  <advance width="1095"/>
  <unicode hex="00A4"/>
  <outline>
    <contour>
      <point x="800" y="753" type="curve" smooth="yes"/>
      <point x="800" y="613"/>
      <point x="686" y="508"/>
      <point x="557" y="508" type="curve" smooth="yes"/>
      <point x="434" y="508"/>
      <point x="319" y="614"/>
      <point x="319" y="753" type="curve" smooth="yes"/>
      <point x="319" y="892"/>
      <point x="434" y="1001"/>
      <point x="557" y="1001" type="curve" smooth="yes"/>
      <point x="682" y="1001"/>
      <point x="800" y="892"/>
    </contour>
    <contour>
      <point x="789" y="1107" type="line"/>
      <point x="721" y="1159"/>
      <point x="646" y="1184"/>
      <point x="557" y="1184" type="curve" smooth="yes"/>
      <point x="472" y="1184"/>
      <point x="389" y="1151"/>
      <point x="324" y="1108" type="curve"/>
      <point x="150" y="1281" type="line"/>
      <point x="25" y="1157" type="line"/>
      <point x="205" y="981" type="line"/>
      <point x="166" y="911"/>
      <point x="141" y="837"/>
      <point x="141" y="753" type="curve" smooth="yes"/>
      <point x="141" y="669"/>
      <point x="168" y="589"/>
      <point x="205" y="525" type="curve"/>
      <point x="26" y="349" type="line"/>
      <point x="150" y="231" type="line"/>
      <point x="320" y="400" type="line"/>
      <point x="388" y="351"/>
      <point x="470" y="325"/>
      <point x="557" y="325" type="curve" smooth="yes"/>
      <point x="645" y="325"/>
      <point x="723" y="355"/>
      <point x="789" y="404" type="curve"/>
      <point x="970" y="230" type="line"/>
      <point x="1086" y="353" type="line"/>
      <point x="911" y="525" type="line"/>
      <point x="952" y="594"/>
      <point x="974" y="669"/>
      <point x="974" y="753" type="curve" smooth="yes"/>
      <point x="974" y="840"/>
      <point x="947" y="918"/>
      <point x="910" y="981" type="curve"/>
      <point x="1087" y="1157" type="line"/>
      <point x="970" y="1281" type="line"/>
    </contour>
  </outline>
</glyph>
<glyph name="brokenbar" format="1">
  <advance width="793"/>
  <unicode hex="00A6"/>
  <outline>
    <contour>
      <point x="248" y="1401" type="line"/>
      <point x="248" y="734" type="line"/>
      <point x="502" y="734" type="line"/>
      <point x="502" y="1401" type="line"/>
    </contour>
    <contour>
      <point x="248" y="226" type="line"/>
      <point x="248" y="-440" type="line"/>
      <point x="502" y="-440" type="line"/>
      <point x="502" y="226" type="line"/>
    </contour>
  </outline>
</glyph>
<glyph name="section" format="1">
  <advance width="1008"/>
  <unicode hex="00A7"/>
  <outline>
    <contour>
      <point x="640" y="668" type="curve"/>
      <point x="640" y="668"/>
      <point x="575" y="699"/>
      <point x="599" y="692" type="curve"/>
      <point x="441" y="770"/>
      <point x="396" y="789"/>
      <point x="396" y="825" type="curve" smooth="yes"/>
      <point x="396" y="857"/>
      <point x="426" y="886"/>
      <point x="439" y="890" type="curve"/>
      <point x="439" y="890"/>
      <point x="547" y="847"/>
      <point x="588" y="821" type="curve" smooth="yes"/>
      <point x="649" y="784"/>
      <point x="672" y="748"/>
      <point x="672" y="721" type="curve" smooth="yes"/>
      <point x="672" y="700"/>
      <point x="659" y="684"/>
    </contour>
    <contour>
      <point x="590" y="321" type="curve" smooth="yes"/>
      <point x="590" y="264"/>
      <point x="551" y="235"/>
      <point x="483" y="235" type="curve" smooth="yes"/>
      <point x="368" y="235"/>
      <point x="214" y="297"/>
      <point x="166" y="331" type="curve"/>
      <point x="166" y="67" type="line"/>
      <point x="258" y="15"/>
      <point x="390" y="-21"/>
      <point x="493" y="-21" type="curve" smooth="yes"/>
      <point x="502" y="-21"/>
      <point x="511" y="-21"/>
      <point x="519" y="-20" type="curve" smooth="yes"/>
      <point x="740" y="-6"/>
      <point x="891" y="87"/>
      <point x="891" y="370" type="curve" smooth="yes"/>
      <point x="891" y="453"/>
      <point x="851" y="534"/>
      <point x="770" y="597" type="curve"/>
      <point x="842" y="656"/>
      <point x="904" y="722"/>
      <point x="904" y="838" type="curve" smooth="yes"/>
      <point x="904" y="940"/>
      <point x="850" y="1022"/>
      <point x="697" y="1095" type="curve" smooth="yes"/>
      <point x="476" y="1199"/>
      <point x="467" y="1225"/>
      <point x="467" y="1262" type="curve" smooth="yes"/>
      <point x="467" y="1304"/>
      <point x="520" y="1316"/>
      <point x="575" y="1316" type="curve" smooth="yes"/>
      <point x="649" y="1316"/>
      <point x="748" y="1294"/>
      <point x="815" y="1256" type="curve"/>
      <point x="882" y="1456" type="line"/>
      <point x="774" y="1532"/>
      <point x="636" y="1567"/>
      <point x="549" y="1567" type="curve" smooth="yes"/>
      <point x="396" y="1567"/>
      <point x="145" y="1522"/>
      <point x="145" y="1241" type="curve" smooth="yes"/>
      <point x="145" y="1119"/>
      <point x="208" y="1034"/>
      <point x="326" y="955" type="curve"/>
      <point x="239" y="891"/>
      <point x="162" y="813"/>
      <point x="162" y="720" type="curve" smooth="yes"/>
      <point x="162" y="589"/>
      <point x="266" y="535"/>
      <point x="429" y="457" type="curve" smooth="yes"/>
      <point x="560" y="391"/>
      <point x="590" y="361"/>
    </contour>
  </outline>
</glyph>
<glyph name="guillemotleft" format="1">
  <advance width="1063"/>
  <unicode hex="00AB"/>
  <outline>
    <contour>
      <point x="806" y="124" type="line"/>
      <point x="1003" y="124" type="line"/>
      <point x="762" y="581" type="line"/>
      <point x="1005" y="1038" type="line"/>
      <point x="807" y="1038" type="line"/>
      <point x="479" y="578" type="line"/>
    </contour>
    <contour>
      <point x="353" y="124" type="line"/>
      <point x="549" y="124" type="line"/>
      <point x="307" y="581" type="line"/>
      <point x="553" y="1038" type="line"/>
      <point x="354" y="1038" type="line"/>
      <point x="25" y="578" type="line"/>
    </contour>
  </outline>
</glyph>
<glyph name="uni00B5" format="1">
  <advance width="1259"/>
  <unicode hex="00B5"/>
  <outline>
    <component base="u"/>
    <contour>
      <point x="94" y="591" type="line"/>
      <point x="94" y="-340" type="line"/>
      <point x="508" y="-340" type="line"/>
      <point x="508" y="591" type="line"/>
    </contour>
  </outline>
</glyph>
<glyph name="cedilla" format="1">
  <advance width="781"/>
  <unicode hex="00B8"/>
  <outline>
    <contour>
      <point x="549" y="26" type="move" name="_bot"/>
    </contour>
    <contour>
      <point x="477" y="-424" type="curve" smooth="yes"/>
      <point x="618" y="-424"/>
      <point x="733" y="-346"/>
      <point x="733" y="-208" type="curve" smooth="yes"/>
      <point x="733" y="-97"/>
      <point x="668" y="-35"/>
      <point x="567" y="-35" type="curve" smooth="yes"/>
      <point x="530" y="-35"/>
      <point x="489" y="-43"/>
      <point x="444" y="-60" type="curve"/>
      <point x="444" y="-138" type="line"/>
      <point x="453" y="-137"/>
      <point x="461" y="-137"/>
      <point x="469" y="-137" type="curve" smooth="yes"/>
      <point x="523" y="-137"/>
      <point x="550" y="-155"/>
      <point x="551" y="-198" type="curve" smooth="yes"/>
      <point x="551" y="-232"/>
      <point x="525" y="-272"/>
      <point x="450" y="-272" type="curve" smooth="yes"/>
      <point x="423" y="-272"/>
      <point x="389" y="-266"/>
      <point x="349" y="-254" type="curve"/>
      <point x="302" y="-387" type="line"/>
      <point x="362" y="-412"/>
      <point x="422" y="-424"/>
    </contour>
  </outline>
</glyph>
<glyph name="AE" format="1">
  <advance width="2177"/>
  <unicode hex="00C6"/>
  <outline>
    <contour>
      <point x="1020" y="573" type="line"/>
      <point x="778" y="573" type="line"/>
      <point x="1020" y="976" type="line"/>
    </contour>
    <contour>
      <point x="974" y="1456" type="line"/>
      <point x="43" y="0" type="line"/>
      <point x="466" y="0" type="line"/>
      <point x="664" y="327" type="line"/>
      <point x="1020" y="327" type="line"/>
      <point x="1020" y="0" type="line"/>
      <point x="2026" y="0" type="line"/>
      <point x="2034" y="279" type="line"/>
      <point x="1344" y="279" type="line"/>
      <point x="1344" y="593" type="line"/>
      <point x="1977" y="593" type="line"/>
      <point x="1977" y="864" type="line"/>
      <point x="1344" y="864" type="line"/>
      <point x="1344" y="1187" type="line"/>
      <point x="1985" y="1187" type="line"/>
      <point x="2009" y="1456" type="line"/>
    </contour>
  </outline>
</glyph>
<glyph name="Thorn" format="1">
  <advance width="1520"/>
  <unicode hex="00DE"/>
  <outline>
    <contour>
      <point x="164" y="0" type="line"/>
      <point x="600" y="0" type="line"/>
      <point x="600" y="282" type="line"/>
      <point x="724" y="282" type="line" smooth="yes"/>
      <point x="1285" y="282"/>
      <point x="1470" y="482"/>
      <point x="1470" y="829" type="curve" smooth="yes"/>
      <point x="1470" y="1150"/>
      <point x="1282" y="1303"/>
      <point x="665" y="1303" type="curve" smooth="yes"/>
      <point x="600" y="1303" type="line"/>
      <point x="600" y="1449" type="line"/>
      <point x="164" y="1449" type="line"/>
    </contour>
    <contour>
      <point x="600" y="1034" type="line"/>
      <point x="691" y="1034" type="line"/>
      <point x="696" y="1034" type="line" smooth="yes"/>
      <point x="1020" y="1034"/>
      <point x="1053" y="931"/>
      <point x="1053" y="807" type="curve" smooth="yes"/>
      <point x="1053" y="679"/>
      <point x="985" y="557"/>
      <point x="658" y="557" type="curve" smooth="yes"/>
      <point x="600" y="557" type="line"/>
    </contour>
  </outline>
</glyph>
<glyph name="divide" format="1">
  <advance width="1304"/>
  <unicode hex="00F7"/>
  <outline>
    <contour>
      <point x="477" y="1187" type="line"/>
      <point x="477" y="883" type="line"/>
      <point x="806" y="883" type="line"/>
      <point x="806" y="1187" type="line"/>
    </contour>
    <contour>
      <point x="477" y="336" type="line"/>
      <point x="477" y="15" type="line"/>
      <point x="795" y="15" type="line"/>
      <point x="795" y="336" type="line"/>
    </contour>
    <contour>
      <point x="76" y="719" type="line"/>
      <point x="76" y="485" type="line"/>
      <point x="1196" y="485" type="line"/>
      <point x="1196" y="719" type="line"/>
    </contour>
  </outline>
</glyph>
<glyph name="eng" format="1">
  <advance width="1259"/>
  <unicode hex="014B"/>
  <outline>
    <component base="n"/>
    <contour>
      <point x="764" y="199" type="line"/>
      <point x="764" y="-21" type="line" smooth="yes"/>
      <point x="764" y="-254"/>
      <point x="732" y="-277"/>
      <point x="551" y="-277" type="curve"/>
      <point x="584" y="-526" type="line"/>
      <point x="1049" y="-504"/>
      <point x="1178" y="-368"/>
      <point x="1178" y="-71" type="curve" smooth="yes"/>
      <point x="1178" y="199" type="line"/>
    </contour>
  </outline>
</glyph>
<glyph name="oe" format="1">
  <advance width="1824"/>
  <unicode hex="0153"/>
  <outline>
    <contour>
      <point x="1087" y="612" type="line"/>
      <point x="1093" y="809"/>
      <point x="1204" y="865"/>
      <point x="1290" y="865" type="curve" smooth="yes"/>
      <point x="1374" y="865"/>
      <point x="1436" y="815"/>
      <point x="1450" y="612" type="curve"/>
    </contour>
    <contour>
      <point x="562" y="229" type="curve" smooth="yes"/>
      <point x="426" y="229"/>
      <point x="356" y="314"/>
      <point x="356" y="546" type="curve" smooth="yes"/>
      <point x="356" y="770"/>
      <point x="425" y="851"/>
      <point x="562" y="851" type="curve" smooth="yes"/>
      <point x="698" y="851"/>
      <point x="768" y="770"/>
      <point x="768" y="546" type="curve" smooth="yes"/>
      <point x="768" y="314"/>
      <point x="697" y="229"/>
    </contour>
    <contour>
      <point x="1621" y="317" type="line"/>
      <point x="1602" y="273"/>
      <point x="1456" y="229"/>
      <point x="1345" y="229" type="curve" smooth="yes"/>
      <point x="1254" y="229"/>
      <point x="1121" y="251"/>
      <point x="1081" y="411" type="curve"/>
      <point x="1717" y="411" type="line"/>
      <point x="1717" y="411"/>
      <point x="1725" y="452"/>
      <point x="1725" y="546" type="curve" smooth="yes"/>
      <point x="1725" y="562" type="line"/>
      <point x="1712" y="872"/>
      <point x="1578" y="1094"/>
      <point x="1274" y="1094" type="curve" smooth="yes"/>
      <point x="1136" y="1094"/>
      <point x="1002" y="1004"/>
      <point x="926" y="924" type="curve"/>
      <point x="851" y="1004"/>
      <point x="704" y="1094"/>
      <point x="562" y="1094" type="curve" smooth="yes"/>
      <point x="258" y="1094"/>
      <point x="48" y="877"/>
      <point x="48" y="544" type="curve" smooth="yes"/>
      <point x="48" y="204"/>
      <point x="255" y="-15"/>
      <point x="562" y="-15" type="curve" smooth="yes"/>
      <point x="703" y="-15"/>
      <point x="834" y="59"/>
      <point x="923" y="137" type="curve"/>
      <point x="1020" y="50"/>
      <point x="1165" y="-16"/>
      <point x="1333" y="-16" type="curve" smooth="yes"/>
      <point x="1517" y="-16"/>
      <point x="1674" y="52"/>
      <point x="1721" y="118" type="curve"/>
      <point x="1635" y="317" type="line"/>
    </contour>
  </outline>
</glyph>
<glyph name="tilde" format="1">
  <advance width="965"/>
  <unicode hex="02DC"/>
  <outline>
    <contour>
      <point x="482" y="1085" type="move" name="_top"/>
    </contour>
    <contour>
      <point x="140" y="1243" type="curve"/>
      <point x="297" y="1243" type="line"/>
      <point x="316" y="1317"/>
      <point x="339" y="1342"/>
      <point x="374" y="1342" type="curve" smooth="yes"/>
      <point x="439" y="1342"/>
      <point x="531" y="1243"/>
      <point x="646" y="1243" type="curve" smooth="yes"/>
      <point x="820" y="1243"/>
      <point x="861" y="1423"/>
      <point x="861" y="1530" type="curve"/>
      <point x="705" y="1530" type="line"/>
      <point x="688" y="1469"/>
      <point x="669" y="1450"/>
      <point x="643" y="1450" type="curve" smooth="yes"/>
      <point x="589" y="1450"/>
      <point x="509" y="1531"/>
      <point x="365" y="1531" type="curve" smooth="yes"/>
      <point x="182" y="1531"/>
      <point x="140" y="1360"/>
    </contour>
  </outline>
</glyph>
<glyph name="daggerdbl" format="1">
  <advance width="1162"/>
  <unicode hex="2021"/>
  <outline>
    <contour>
      <point x="401" y="1453" type="line"/>
      <point x="401" y="1081" type="line"/>
      <point x="88" y="1081" type="line"/>
      <point x="88" y="843" type="line"/>
      <point x="401" y="843" type="line"/>
      <point x="401" y="576" type="line"/>
      <point x="88" y="576" type="line"/>
      <point x="88" y="338" type="line"/>
      <point x="401" y="338" type="line"/>
      <point x="401" y="-222" type="line"/>
      <point x="782" y="-222" type="line"/>
      <point x="782" y="338" type="line"/>
      <point x="1123" y="338" type="line"/>
      <point x="1123" y="576" type="line"/>
      <point x="792" y="576" type="line"/>
      <point x="792" y="843" type="line"/>
      <point x="1123" y="843" type="line"/>
      <point x="1123" y="1081" type="line"/>
      <point x="793" y="1081" type="line"/>
      <point x="793" y="1453" type="line"/>
    </contour>
  </outline>
</glyph>
<glyph name="bullet" format="1">
  <advance width="979"/>
  <unicode hex="2022"/>
  <outline>
    <contour>
      <point x="477" y="330" type="curve" smooth="yes"/>
      <point x="691" y="330"/>
      <point x="846" y="494"/>
      <point x="846" y="687" type="curve" smooth="yes"/>
      <point x="846" y="882"/>
      <point x="697" y="1038"/>
      <point x="484" y="1038" type="curve" smooth="yes"/>
      <point x="271" y="1038"/>
      <point x="114" y="874"/>
      <point x="114" y="682" type="curve" smooth="yes"/>
      <point x="114" y="489"/>
      <point x="262" y="330"/>
    </contour>
  </outline>
</glyph>
<glyph name="guilsinglleft" format="1">
  <advance width="1007"/>
  <unicode hex="2039"/>
  <outline>
    <contour>
      <point x="510" y="177" type="line"/>
      <point x="725" y="177" type="line"/>
      <point x="472" y="606" type="line"/>
      <point x="729" y="1058" type="line"/>
      <point x="519" y="1058" type="line"/>
      <point x="242" y="610" type="line"/>
    </contour>
  </outline>
</glyph>
<glyph name="guilsinglright" format="1">
  <advance width="766"/>
  <unicode hex="203A"/>
  <outline>
    <contour>
      <point x="127" y="177" type="line"/>
      <point x="340" y="177" type="line"/>
      <point x="615" y="590" type="line"/>
      <point x="361" y="989" type="line"/>
      <point x="150" y="989" type="line"/>
      <point x="388" y="594" type="line"/>
    </contour>
  </outline>
</glyph>
<glyph name="uni2074" format="1">
  <advance width="683"/>
  <unicode hex="2074"/>
  <outline>
    <contour>
      <point x="177" y="902" type="line"/>
      <point x="328" y="1196" type="line"/>
      <point x="329" y="902" type="line"/>
    </contour>
    <contour>
      <point x="328" y="570" type="line"/>
      <point x="516" y="570" type="line"/>
      <point x="517" y="741" type="line"/>
      <point x="606" y="741" type="line"/>
      <point x="627" y="902" type="line"/>
      <point x="515" y="902" type="line"/>
      <point x="515" y="1450" type="line"/>
      <point x="317" y="1450" type="line"/>
      <point x="-34" y="910" type="line"/>
      <point x="-34" y="741" type="line"/>
      <point x="328" y="741" type="line"/>
    </contour>
  </outline>
</glyph>
<glyph name="Euro" format="1">
  <advance width="1391"/>
  <unicode hex="20AC"/>
  <outline>
    <component base="C" xOffset="-27"/>
    <contour>
      <point x="-100" y="526" type="line"/>
      <point x="803" y="526" type="line"/>
      <point x="799" y="690" type="line"/>
      <point x="278" y="690" type="line"/>
      <point x="278" y="797" type="line"/>
      <point x="799" y="797" type="line"/>
      <point x="797" y="963" type="line"/>
      <point x="-105" y="963" type="line"/>
      <point x="-103" y="797" type="line"/>
      <point x="76" y="797" type="line"/>
      <point x="76" y="690" type="line"/>
      <point x="-105" y="690" type="line"/>
    </contour>
  </outline>
</glyph>
<glyph name="uni2113" format="1">
  <advance width="1404"/>
  <unicode hex="2113"/>
  <outline>
    <contour>
      <point x="783" y="816" type="line"/>
      <point x="909" y="1325" type="line" smooth="yes"/>
      <point x="936" y="1435"/>
      <point x="1004" y="1483"/>
      <point x="1067" y="1483" type="curve" smooth="yes"/>
      <point x="1135" y="1483"/>
      <point x="1197" y="1427"/>
      <point x="1197" y="1333" type="curve" smooth="yes"/>
      <point x="1197" y="1210"/>
      <point x="1113" y="1049"/>
      <point x="939" y="926" type="curve" smooth="yes"/>
    </contour>
    <contour>
      <point x="1396" y="1330" type="curve" smooth="yes"/>
      <point x="1396" y="1574"/>
      <point x="1190" y="1714"/>
      <point x="978" y="1714" type="curve" smooth="yes"/>
      <point x="797" y="1714"/>
      <point x="614" y="1609"/>
      <point x="556" y="1396" type="curve" smooth="yes"/>
      <point x="362" y="680" type="line"/>
      <point x="62" y="464" type="line"/>
      <point x="125" y="334" type="line"/>
      <point x="295" y="447" type="line"/>
      <point x="286" y="399"/>
      <point x="282" y="355"/>
      <point x="282" y="315" type="curve" smooth="yes"/>
      <point x="282" y="89"/>
      <point x="417" y="-20"/>
      <point x="612" y="-20" type="curve" smooth="yes"/>
      <point x="901" y="-20"/>
      <point x="1089" y="98"/>
      <point x="1089" y="98" type="curve"/>
      <point x="1058" y="326" type="line"/>
      <point x="955" y="290"/>
      <point x="859" y="259"/>
      <point x="781" y="259" type="curve" smooth="yes"/>
      <point x="720" y="259"/>
      <point x="677" y="282"/>
      <point x="677" y="352" type="curve" smooth="yes"/>
      <point x="677" y="370"/>
      <point x="680" y="392"/>
      <point x="686" y="417" type="curve" smooth="yes"/>
      <point x="749" y="672" type="line"/>
      <point x="1032" y="865" type="line" smooth="yes"/>
      <point x="1291" y="1042"/>
      <point x="1396" y="1120"/>
    </contour>
  </outline>
</glyph>
<glyph name="partialdiff" format="1">
  <advance width="1444"/>
  <unicode hex="2202"/>
  <outline>
    <contour>
      <point x="599" y="151" type="curve" smooth="yes"/>
      <point x="559" y="151"/>
      <point x="539" y="199"/>
      <point x="539" y="268" type="curve" smooth="yes"/>
      <point x="539" y="444"/>
      <point x="666" y="762"/>
      <point x="913" y="822" type="curve"/>
      <point x="888" y="542"/>
      <point x="775" y="151"/>
    </contour>
    <contour>
      <point x="585" y="-21" type="curve" smooth="yes"/>
      <point x="984" y="-21"/>
      <point x="1227" y="402"/>
      <point x="1227" y="938" type="curve" smooth="yes"/>
      <point x="1227" y="1310"/>
      <point x="968" y="1561"/>
      <point x="650" y="1561" type="curve" smooth="yes"/>
      <point x="532" y="1561"/>
      <point x="407" y="1526"/>
      <point x="283" y="1451" type="curve"/>
      <point x="349" y="1282" type="line"/>
      <point x="437" y="1338"/>
      <point x="523" y="1364"/>
      <point x="602" y="1364" type="curve" smooth="yes"/>
      <point x="785" y="1364"/>
      <point x="923" y="1224"/>
      <point x="923" y="994" type="curve" smooth="yes"/>
      <point x="923" y="984" type="line"/>
      <point x="467" y="948"/>
      <point x="212" y="601"/>
      <point x="212" y="324" type="curve" smooth="yes"/>
      <point x="212" y="135"/>
      <point x="331" y="-21"/>
    </contour>
  </outline>
</glyph>
<glyph name="radical" format="1">
  <advance width="1445"/>
  <unicode hex="221A"/>
  <outline>
    <contour>
      <point x="1065" y="1534" type="line"/>
      <point x="1066" y="1536"/>
      <point x="1066" y="1538"/>
      <point x="1066" y="1538" type="curve"/>
      <point x="1066" y="1556"/>
      <point x="643" y="212"/>
      <point x="637" y="212" type="curve"/>
      <point x="637" y="212"/>
      <point x="637" y="213"/>
      <point x="638" y="216" type="curve"/>
      <point x="552" y="473"/>
      <point x="464" y="728"/>
      <point x="377" y="984" type="curve"/>
      <point x="5" y="868" type="line"/>
      <point x="39" y="742" type="line"/>
      <point x="179" y="786" type="line"/>
      <point x="532" y="-169" type="line"/>
      <point x="872" y="-169" type="line"/>
      <point x="1415" y="1534" type="line"/>
    </contour>
  </outline>
</glyph>
<glyph name="lessequal" format="1">
  <advance width="1192"/>
  <unicode hex="2264"/>
  <outline>
    <contour>
      <point x="108" y="-10" type="line"/>
      <point x="1050" y="-10" type="line"/>
      <point x="1050" y="180" type="line"/>
      <point x="108" y="178" type="line"/>
    </contour>
    <contour>
      <point x="1054" y="349" type="line"/>
      <point x="1054" y="603" type="line"/>
      <point x="432" y="827" type="line"/>
      <point x="1060" y="1054" type="line"/>
      <point x="1060" y="1300" type="line"/>
      <point x="127" y="898" type="line"/>
      <point x="127" y="750" type="line"/>
    </contour>
  </outline>
</glyph>
<glyph name="greaterequal" format="1">
  <advance width="1192"/>
  <unicode hex="2265"/>
  <outline>
    <contour>
      <point x="140" y="1" type="line"/>
      <point x="1071" y="1" type="line"/>
      <point x="1071" y="192" type="line"/>
      <point x="140" y="194" type="line"/>
    </contour>
    <contour>
      <point x="138" y="209" type="line"/>
      <point x="1072" y="682" type="line"/>
      <point x="1072" y="825" type="line"/>
      <point x="138" y="1302" type="line"/>
      <point x="138" y="1056" type="line"/>
      <point x="821" y="753" type="line"/>
      <point x="138" y="464" type="line"/>
    </contour>
  </outline>
</glyph>
<glyph name="lozenge" format="1">
  <advance width="1233"/>
  <unicode hex="25CA"/>
  <outline>
    <contour>
      <point x="945" y="731" type="curve"/>
      <point x="682" y="237"/>
      <point x="863" y="659"/>
      <point x="599" y="165" type="curve"/>
      <point x="339" y="655"/>
      <point x="540" y="237"/>
      <point x="285" y="729" type="curve"/>
      <point x="547" y="1222"/>
      <point x="352" y="807"/>
      <point x="617" y="1297" type="curve"/>
      <point x="869" y="802"/>
      <point x="690" y="1220"/>
    </contour>
    <contour>
      <point x="542" y="1505" type="line"/>
      <point x="88" y="727" type="line"/>
      <point x="535" y="-45" type="line"/>
      <point x="681" y="-45" type="line"/>
      <point x="1142" y="727" type="line"/>
      <point x="692" y="1505" type="line"/>
    </contour>
  </outline>
</glyph>
